<?xml version="1.0" encoding="UTF-8" standalone="no"?>
<!-- Created with Inkscape (http://www.inkscape.org/) -->

<svg
   xmlns:dc="http://purl.org/dc/elements/1.1/"
   xmlns:cc="http://creativecommons.org/ns#"
   xmlns:rdf="http://www.w3.org/1999/02/22-rdf-syntax-ns#"
   xmlns:svg="http://www.w3.org/2000/svg"
   xmlns="http://www.w3.org/2000/svg"
   xmlns:sodipodi="http://sodipodi.sourceforge.net/DTD/sodipodi-0.dtd"
   xmlns:inkscape="http://www.inkscape.org/namespaces/inkscape"
   version="1.1"
   id="svg2"
   xml:space="preserve"
   width="1287.0548"
   height="608.57141"
   viewBox="0 0 1287.0548 608.57141"
   sodipodi:docname="opt1b.svg"
   inkscape:version="0.92.3 (2405546, 2018-03-11)"><metadata
     id="metadata8"><rdf:RDF><cc:Work
         rdf:about=""><dc:format>image/svg+xml</dc:format><dc:type
           rdf:resource="http://purl.org/dc/dcmitype/StillImage" /><dc:title></dc:title></cc:Work></rdf:RDF></metadata><defs
     id="defs6"><clipPath
       clipPathUnits="userSpaceOnUse"
       id="clipPath22"><path
         d="M 307,0 H 436 V 455 H 307 Z"
         id="path20"
         inkscape:connector-curvature="0" /></clipPath><clipPath
       clipPathUnits="userSpaceOnUse"
       id="clipPath36"><path
         d="m 332,170.42856 h 79 v 209 h -79 z"
         id="path34"
         inkscape:connector-curvature="0" /></clipPath><mask
       maskUnits="userSpaceOnUse"
       x="0"
       y="0"
       width="1"
       height="1"
       id="mask38"><g
         id="g44"><g
           clip-path="url(#clipPath36)"
           id="g42"><path
             d="m 332,170.42856 h 79 v 209 h -79 z"
             style="fill:#000000;fill-opacity:0.33900003;fill-rule:nonzero;stroke:none"
             id="path40"
             inkscape:connector-curvature="0" /></g></g></mask><clipPath
       clipPathUnits="userSpaceOnUse"
       id="clipPath52"><path
         d="m 332,170.42856 h 79 v 209 h -79 z"
         id="path50"
         inkscape:connector-curvature="0" /></clipPath><clipPath
       clipPathUnits="userSpaceOnUse"
       id="clipPath56"><path
         d="m 332,171 h 79 v 209 h -79 z"
         id="path54"
         inkscape:connector-curvature="0" /></clipPath><clipPath
       clipPathUnits="userSpaceOnUse"
       id="clipPath80"><path
         d="M 319,94.428558 H 424 V 394.42856 H 319 Z"
         id="path78"
         inkscape:connector-curvature="0" /></clipPath><mask
       maskUnits="userSpaceOnUse"
       x="0"
       y="0"
       width="1"
       height="1"
       id="mask82"><g
         id="g88"><g
           clip-path="url(#clipPath80)"
           id="g86"><path
             d="M 319,94.428558 H 424 V 394.42856 H 319 Z"
             style="fill:#000000;fill-opacity:0.33900003;fill-rule:nonzero;stroke:none"
             id="path84"
             inkscape:connector-curvature="0" /></g></g></mask><clipPath
       clipPathUnits="userSpaceOnUse"
       id="clipPath96"><path
         d="M 319,94.428558 H 424 V 394.42856 H 319 Z"
         id="path94"
         inkscape:connector-curvature="0" /></clipPath><clipPath
       clipPathUnits="userSpaceOnUse"
       id="clipPath100"><path
         d="M 319,95 H 424 V 395 H 319 Z"
         id="path98"
         inkscape:connector-curvature="0" /></clipPath><clipPath
       clipPathUnits="userSpaceOnUse"
       id="clipPath124"><path
         d="m 353,241.42856 h 37 v 122 h -37 z"
         id="path122"
         inkscape:connector-curvature="0" /></clipPath><mask
       maskUnits="userSpaceOnUse"
       x="0"
       y="0"
       width="1"
       height="1"
       id="mask126"><g
         id="g132"><g
           clip-path="url(#clipPath124)"
           id="g130"><path
             d="m 353,241.42856 h 37 v 122 h -37 z"
             style="fill:#000000;fill-opacity:0.27000002;fill-rule:nonzero;stroke:none"
             id="path128"
             inkscape:connector-curvature="0" /></g></g></mask><clipPath
       clipPathUnits="userSpaceOnUse"
       id="clipPath140"><path
         d="m 353,241.42856 h 37 v 122 h -37 z"
         id="path138"
         inkscape:connector-curvature="0" /></clipPath><clipPath
       clipPathUnits="userSpaceOnUse"
       id="clipPath144"><path
         d="m 353,242 h 37 v 122 h -37 z"
         id="path142"
         inkscape:connector-curvature="0" /></clipPath><clipPath
       clipPathUnits="userSpaceOnUse"
       id="clipPath170"><path
         d="m 356,20 h 31 v 31 h -31 z"
         id="path168"
         inkscape:connector-curvature="0" /></clipPath><clipPath
       clipPathUnits="userSpaceOnUse"
       id="clipPath186"><path
         d="m 356,329 h 31 v 31 h -31 z"
         id="path184"
         inkscape:connector-curvature="0" /></clipPath><clipPath
       clipPathUnits="userSpaceOnUse"
       id="clipPath202"><path
         d="m 356,98 h 31 v 31 h -31 z"
         id="path200"
         inkscape:connector-curvature="0" /></clipPath><clipPath
       clipPathUnits="userSpaceOnUse"
       id="clipPath218"><path
         d="m 356,176 h 30 v 30 h -30 z"
         id="path216"
         inkscape:connector-curvature="0" /></clipPath><clipPath
       clipPathUnits="userSpaceOnUse"
       id="clipPath234"><path
         d="m 356,405 h 31 v 31 h -31 z"
         id="path232"
         inkscape:connector-curvature="0" /></clipPath><clipPath
       clipPathUnits="userSpaceOnUse"
       id="clipPath250"><path
         d="m 489,410 h 68 v 24 h -68 z"
         id="path248"
         inkscape:connector-curvature="0" /></clipPath><clipPath
       clipPathUnits="userSpaceOnUse"
       id="clipPath266"><path
         d="m 445,178 h 158 v 30 H 445 Z"
         id="path264"
         inkscape:connector-curvature="0" /></clipPath><clipPath
       clipPathUnits="userSpaceOnUse"
       id="clipPath282"><path
         d="m 484,104 h 78 v 24 h -78 z"
         id="path280"
         inkscape:connector-curvature="0" /></clipPath><clipPath
       clipPathUnits="userSpaceOnUse"
       id="clipPath298"><path
         d="M 439,21 H 613 V 52 H 439 Z"
         id="path296"
         inkscape:connector-curvature="0" /></clipPath><clipPath
       clipPathUnits="userSpaceOnUse"
       id="clipPath314"><path
         d="m 442,257 h 164 v 30 H 442 Z"
         id="path312"
         inkscape:connector-curvature="0" /></clipPath><clipPath
       clipPathUnits="userSpaceOnUse"
       id="clipPath330"><path
         d="m 445,330 h 160 v 30 H 445 Z"
         id="path328"
         inkscape:connector-curvature="0" /></clipPath><clipPath
       clipPathUnits="userSpaceOnUse"
       id="clipPath346"><path
         d="m 294,308 h 69 v 3 h -69 z"
         id="path344"
         inkscape:connector-curvature="0" /></clipPath><clipPath
       clipPathUnits="userSpaceOnUse"
       id="clipPath362"><path
         d="m 278,223 h 74 v 2 h -74 z"
         id="path360"
         inkscape:connector-curvature="0" /></clipPath><clipPath
       clipPathUnits="userSpaceOnUse"
       id="clipPath378"><path
         d="m 224,136 h 115 v 2 H 224 Z"
         id="path376"
         inkscape:connector-curvature="0" /></clipPath><clipPath
       clipPathUnits="userSpaceOnUse"
       id="clipPath394"><path
         d="m 0,296 h 287 v 29 H 0 Z"
         id="path392"
         inkscape:connector-curvature="0" /></clipPath><clipPath
       clipPathUnits="userSpaceOnUse"
       id="clipPath410"><path
         d="m 0,211 h 257 v 28 H 0 Z"
         id="path408"
         inkscape:connector-curvature="0" /></clipPath><clipPath
       clipPathUnits="userSpaceOnUse"
       id="clipPath426"><path
         d="m 0,123 h 190 v 29 H 0 Z"
         id="path424"
         inkscape:connector-curvature="0" /></clipPath><clipPath
       clipPathUnits="userSpaceOnUse"
       id="clipPath442"><path
         d="m 620,261 h 29 v 93 h -29 z"
         id="path440"
         inkscape:connector-curvature="0" /></clipPath><clipPath
       clipPathUnits="userSpaceOnUse"
       id="clipPath458"><path
         d="m 734,94 h 33 v 265 h -33 z"
         id="path456"
         inkscape:connector-curvature="0" /></clipPath><clipPath
       clipPathUnits="userSpaceOnUse"
       id="clipPath474"><path
         d="m 791,213 h 175 v 32 H 791 Z"
         id="path472"
         inkscape:connector-curvature="0" /></clipPath><clipPath
       clipPathUnits="userSpaceOnUse"
       id="clipPath490"><path
         d="M 810,27 H 939 V 52 H 810 Z"
         id="path488"
         inkscape:connector-curvature="0" /></clipPath><clipPath
       clipPathUnits="userSpaceOnUse"
       id="clipPath506"><path
         d="m 630,32 h 157 v 3 H 630 Z"
         id="path504"
         inkscape:connector-curvature="0" /></clipPath><clipPath
       clipPathUnits="userSpaceOnUse"
       id="clipPath522"><path
         d="m 663,300 h 52 v 19 h -52 z"
         id="path520"
         inkscape:connector-curvature="0" /></clipPath><clipPath
       clipPathUnits="userSpaceOnUse"
       id="clipPath558"><path
         d="m 370,359 h 2 v 48 h -2 z"
         id="path556"
         inkscape:connector-curvature="0" /></clipPath><clipPath
       clipPathUnits="userSpaceOnUse"
       id="clipPath574"><path
         d="m 370,284 h 2 v 46 h -2 z"
         id="path572"
         inkscape:connector-curvature="0" /></clipPath><clipPath
       clipPathUnits="userSpaceOnUse"
       id="clipPath590"><path
         d="m 370,204 h 2 v 52 h -2 z"
         id="path588"
         inkscape:connector-curvature="0" /></clipPath><clipPath
       clipPathUnits="userSpaceOnUse"
       id="clipPath606"><path
         d="m 370,127 h 2 v 50 h -2 z"
         id="path604"
         inkscape:connector-curvature="0" /></clipPath><clipPath
       clipPathUnits="userSpaceOnUse"
       id="clipPath622"><path
         d="m 370,50 h 3 v 49 h -3 z"
         id="path620"
         inkscape:connector-curvature="0" /></clipPath><clipPath
       clipPathUnits="userSpaceOnUse"
       id="clipPath638"><path
         d="m 356,254 h 30 v 31 h -30 z"
         id="path636"
         inkscape:connector-curvature="0" /></clipPath><clipPath
       clipPathUnits="userSpaceOnUse"
       id="clipPath654"><path
         d="m 190,417 h 139 v 2 H 190 Z"
         id="path652"
         inkscape:connector-curvature="0" /></clipPath><clipPath
       clipPathUnits="userSpaceOnUse"
       id="clipPath670"><path
         d="m 0,405 h 157 v 28 H 0 Z"
         id="path668"
         inkscape:connector-curvature="0" /></clipPath></defs><sodipodi:namedview
     pagecolor="#ffffff"
     bordercolor="#666666"
     borderopacity="1"
     objecttolerance="10"
     gridtolerance="10"
     guidetolerance="10"
     inkscape:pageopacity="0"
     inkscape:pageshadow="2"
     inkscape:window-width="2521"
     inkscape:window-height="1416"
     id="namedview4"
     showgrid="false"
     inkscape:zoom="1.1647261"
     inkscape:cx="711.40833"
     inkscape:cy="265.78467"
     inkscape:window-x="0"
     inkscape:window-y="0"
     inkscape:window-maximized="1"
     inkscape:current-layer="g10" /><g
     id="g10"
     inkscape:groupmode="layer"
     inkscape:label="opt1"
     transform="matrix(1.3333333,0,0,-1.3333333,0,608.57141)"><g
       transform="translate(0,-0.571442)"
       id="g14"><g
         id="g16"><g
           clip-path="url(#clipPath22)"
           id="g18"><g
             id="g24"><g
               transform="matrix(1,0,0,-1,0,457)"
               id="g26"><path
                 inkscape:connector-curvature="0"
                 id="path28"
                 style="fill:#ffffff;fill-opacity:1;fill-rule:nonzero;stroke:#4d4d4d;stroke-width:1.699633;stroke-linecap:butt;stroke-linejoin:miter;stroke-miterlimit:4;stroke-dasharray:none;stroke-opacity:1"
                 d="M 308.195,3.59 H 434.406 V 455.578 H 308.195 Z" /></g></g></g></g></g><g
       id="g30"><g
         id="g32" /><g
         mask="url(#mask38)"
         id="g46"><g
           id="g48" /><g
           id="g72"><g
             id="g70"
             clip-path="url(#clipPath52)"><g
               id="g68"
               transform="translate(0,-0.571442)"><g
                 id="g66"><g
                   id="g64"
                   clip-path="url(#clipPath56)"><g
                     id="g62"><g
                       id="g60"
                       transform="matrix(1,0,0,-1,0,457)"><path
                         inkscape:connector-curvature="0"
                         id="path58"
                         style="fill:#666666;fill-opacity:1;fill-rule:nonzero;stroke:#000000;stroke-width:1.37706602;stroke-linecap:butt;stroke-linejoin:miter;stroke-miterlimit:4;stroke-dasharray:none;stroke-opacity:1"
                         d="m 333.488,78.406 h 76.055 v 206.902 h -76.055 z" /></g></g></g></g></g></g></g></g></g><g
       id="g118"><g
         id="g120" /><g
         mask="url(#mask126)"
         id="g134"><g
           id="g136" /><g
           id="g160"><g
             id="g158"
             clip-path="url(#clipPath140)"><g
               id="g156"
               transform="translate(0,-0.571442)"><g
                 id="g154"><g
                   id="g152"
                   clip-path="url(#clipPath144)"><g
                     id="g150"><g
                       id="g148"
                       transform="matrix(1,0,0,-1,0,457)"><path
                         inkscape:connector-curvature="0"
                         id="path146"
                         style="fill:#000000;fill-opacity:1;fill-rule:nonzero;stroke:#000000;stroke-width:2.65279007;stroke-linecap:butt;stroke-linejoin:miter;stroke-miterlimit:4;stroke-dasharray:none;stroke-opacity:1"
                         d="m 354.875,95.082 h 33.281 v 118.082 h -33.281 z" /></g></g></g></g></g></g></g></g></g><g
       transform="translate(0,-0.571442)"
       id="g162"><g
         id="g164"><g
           clip-path="url(#clipPath170)"
           id="g166"><g
             id="g172"><g
               transform="matrix(1,0,0,-1,0,457)"
               id="g174"><path
                 inkscape:connector-curvature="0"
                 id="path176"
                 style="fill:#2c7fb8;fill-opacity:1;fill-rule:nonzero;stroke:#000000;stroke-width:0.728697;stroke-linecap:butt;stroke-linejoin:miter;stroke-miterlimit:4;stroke-dasharray:none;stroke-opacity:1"
                 d="m 385.781,421.297 c 0,8.031 -6.539,14.539 -14.605,14.539 -8.067,0 -14.606,-6.508 -14.606,-14.539 0,-8.031 6.539,-14.543 14.606,-14.543 8.066,0 14.605,6.512 14.605,14.543 z" /></g></g></g></g></g><g
       transform="translate(0,-0.571442)"
       id="g178"><g
         id="g180"><g
           clip-path="url(#clipPath186)"
           id="g182"><g
             id="g188"><g
               transform="matrix(1,0,0,-1,0,457)"
               id="g190"><path
                 inkscape:connector-curvature="0"
                 id="path192"
                 style="fill:#fcc5c0;fill-opacity:1;fill-rule:nonzero;stroke:#000000;stroke-width:0.728697;stroke-linecap:butt;stroke-linejoin:miter;stroke-miterlimit:4;stroke-dasharray:none;stroke-opacity:1"
                 d="m 385.781,112.156 c 0,8.032 -6.539,14.543 -14.605,14.543 -8.067,0 -14.606,-6.511 -14.606,-14.543 0,-8.031 6.539,-14.543 14.606,-14.543 8.066,0 14.605,6.512 14.605,14.543 z" /></g></g></g></g></g><g
       transform="translate(0,-0.571442)"
       id="g194"><g
         id="g196"><g
           clip-path="url(#clipPath202)"
           id="g198"><g
             id="g204"><g
               transform="matrix(1,0,0,-1,0,457)"
               id="g206"><path
                 inkscape:connector-curvature="0"
                 id="path208"
                 style="fill:#f03b20;fill-opacity:1;fill-rule:nonzero;stroke:#000000;stroke-width:0.728697;stroke-linecap:butt;stroke-linejoin:miter;stroke-miterlimit:4;stroke-dasharray:none;stroke-opacity:1"
                 d="m 385.781,343.848 c 0,8.031 -6.539,14.543 -14.605,14.543 -8.067,0 -14.606,-6.512 -14.606,-14.543 0,-8.032 6.539,-14.539 14.606,-14.539 8.066,0 14.605,6.507 14.605,14.539 z" /></g></g></g></g></g><g
       transform="translate(0,-0.571442)"
       id="g210"><g
         id="g212"><g
           clip-path="url(#clipPath218)"
           id="g214"><g
             id="g220"><g
               transform="matrix(1,0,0,-1,0,457)"
               id="g222"><path
                 inkscape:connector-curvature="0"
                 id="path224"
                 style="fill:#fc9272;fill-opacity:1;fill-rule:nonzero;stroke:#000000;stroke-width:0.72984499;stroke-linecap:butt;stroke-linejoin:miter;stroke-miterlimit:4;stroke-dasharray:none;stroke-opacity:1"
                 d="m 364.035,278.383 c -5.265,-3.199 -7.937,-9.531 -6.41,-15.192 2.078,-7.671 9.891,-12.531 16.82,-10.464 15.942,4.753 13.403,27.386 -3.07,27.375 -2.91,-0.004 -5.516,-0.614 -7.34,-1.719 z" /></g></g></g></g></g><g
       transform="translate(0,-0.571442)"
       id="g226"><g
         id="g228"><g
           clip-path="url(#clipPath234)"
           id="g230"><g
             id="g236"><g
               transform="matrix(1,0,0,-1,0,457)"
               id="g238"><path
                 inkscape:connector-curvature="0"
                 id="path240"
                 style="fill:#ffff00;fill-opacity:1;fill-rule:nonzero;stroke:#000000;stroke-width:1.86236203;stroke-linecap:butt;stroke-linejoin:miter;stroke-miterlimit:4;stroke-dasharray:none;stroke-opacity:1"
                 d="m 366.781,49.574 c -9.269,-3.293 -12.558,-14.32 -6.539,-21.937 7.106,-8.996 22.211,-5.465 24.594,5.746 2.242,10.547 -8.024,19.75 -18.055,16.191 z" /></g></g></g></g></g><g
       transform="translate(0,-0.571442)"
       id="g242"><g
         id="g244"><g
           clip-path="url(#clipPath250)"
           id="g246"><g
             id="g252"><text
               id="text256"
               style="font-variant:normal;font-size:34.07517242px;font-family:'Nimbus Roman No9 L';-inkscape-font-specification:NimbusRomNo9L-ReguItal;writing-mode:lr-tb;fill:#000000;fill-opacity:1;fill-rule:nonzero;stroke:none"
               transform="matrix(1,0,0,-0.9955928,489.15867,411.25535)"><tspan
                 id="tspan254"
                 sodipodi:role="line"
                 y="0"
                 x="0 17.037586 26.510485 43.548069 56.80331"
                 style="font-style:italic">Start</tspan></text>
</g></g></g></g><g
       transform="translate(0,-0.571442)"
       id="g258"><g
         id="g260"><g
           clip-path="url(#clipPath266)"
           id="g262"><g
             id="g268"><text
               id="text272"
               style="font-variant:normal;font-size:34.07517242px;font-family:'Nimbus Roman No9 L';-inkscape-font-specification:NimbusRomNo9L-ReguItal;writing-mode:lr-tb;fill:#fc9272;fill-opacity:1;fill-rule:nonzero;stroke:none"
               transform="matrix(1,0,0,-0.9955928,445.56083,184.26598)"><tspan
                 id="tspan270"
                 sodipodi:role="line"
                 y="0"
                 x="0 20.819931 37.857517 47.330414 64.367996 73.840897 83.313797 100.35138"
                 style="font-style:italic">Rotation</tspan></text>
</g></g></g></g><g
       transform="translate(0,-0.571442)"
       id="g274"><g
         id="g276"><g
           clip-path="url(#clipPath282)"
           id="g278"><g
             id="g284"><text
               id="text288"
               style="font-variant:normal;font-size:34.07517242px;font-family:'Nimbus Roman No9 L';-inkscape-font-specification:NimbusRomNo9L-ReguItal;writing-mode:lr-tb;fill:#de2d26;fill-opacity:1;fill-rule:nonzero;stroke:none"
               transform="matrix(1,0,0,-0.9955928,484.73899,105.18312)"><tspan
                 id="tspan286"
                 sodipodi:role="line"
                 y="0"
                 x="0 18.945795 35.983383 53.020969"
                 style="font-style:italic">Zoom</tspan></text>
</g></g></g></g><g
       transform="translate(0,-0.571442)"
       id="g290"><g
         id="g292"><g
           clip-path="url(#clipPath298)"
           id="g294"><g
             id="g300"><text
               id="text304"
               style="font-variant:normal;font-size:34.07517242px;font-family:'Nimbus Roman No9 L';-inkscape-font-specification:NimbusRomNo9L-ReguItal;writing-mode:lr-tb;fill:#2c7fb8;fill-opacity:1;fill-rule:nonzero;stroke:none"
               transform="matrix(1,0,0,-0.9955928,439.53958,28.480626)"><tspan
                 id="tspan302"
                 sodipodi:role="line"
                 y="0"
                 x="0 24.602274 34.075172 51.112759 68.150345 77.623245 87.096138 104.13373 121.17131 130.64421 140.11711 157.15469"
                 style="font-style:italic">Highlighting</tspan></text>
</g></g></g></g><g
       transform="translate(0,-0.571442)"
       id="g306"><g
         id="g308"><g
           clip-path="url(#clipPath314)"
           id="g310"><g
             id="g316"><text
               id="text320"
               style="font-variant:normal;font-size:34.07517242px;font-family:'Nimbus Roman No9 L';-inkscape-font-specification:NimbusRomNo9L-ReguItal;writing-mode:lr-tb;fill:#fcc5c0;fill-opacity:1;fill-rule:nonzero;stroke:none"
               transform="matrix(1,0,0,-0.9955928,443.02392,263.80126)"><tspan
                 id="tspan318"
                 sodipodi:role="line"
                 y="0"
                 x="0 20.819931 37.857517 47.330414 64.367996 73.840897 83.313797 100.35138"
                 style="font-style:italic">Rotation</tspan></text>
</g></g></g></g><g
       transform="translate(0,-0.571442)"
       id="g322"><g
         id="g324"><g
           clip-path="url(#clipPath330)"
           id="g326"><g
             id="g332"><text
               id="text336"
               style="font-variant:normal;font-size:34.07517242px;font-family:'Nimbus Roman No9 L';-inkscape-font-specification:NimbusRomNo9L-ReguItal;writing-mode:lr-tb;fill:#fcc5c0;fill-opacity:1;fill-rule:nonzero;stroke:none"
               transform="matrix(1,0,0,-0.9955928,446.10004,337.05845)"><tspan
                 id="tspan334"
                 sodipodi:role="line"
                 y="0"
                 x="0 20.819931 37.857517 47.330414 64.367996 73.840897 83.313797 100.35138"
                 style="font-style:italic">Rotation</tspan></text>
</g></g></g></g><g
       transform="translate(0,-0.571442)"
       id="g338"><g
         id="g340"><g
           clip-path="url(#clipPath346)"
           id="g342"><g
             id="g348"><g
               transform="matrix(1,0,0,-1,0,457)"
               id="g350"><path
                 inkscape:connector-curvature="0"
                 id="path352"
                 style="fill:none;stroke:#000000;stroke-width:1.44638896;stroke-linecap:butt;stroke-linejoin:miter;stroke-miterlimit:4;stroke-dasharray:none;stroke-opacity:1"
                 d="m 362.746,147.621 c -68.387,0 -68.387,0 -68.387,0" /></g></g></g></g></g><g
       transform="translate(0,-0.571442)"
       id="g354"><g
         id="g356"><g
           clip-path="url(#clipPath362)"
           id="g358"><g
             id="g364"><g
               transform="matrix(1,0,0,-1,0,457)"
               id="g366"><path
                 inkscape:connector-curvature="0"
                 id="path368"
                 style="fill:none;stroke:#000000;stroke-width:1.41732299;stroke-linecap:butt;stroke-linejoin:miter;stroke-miterlimit:4;stroke-dasharray:none;stroke-opacity:1"
                 d="m 351.043,232.711 c -72.871,0 -72.871,0 -72.871,0" /></g></g></g></g></g><g
       transform="translate(0,-0.571442)"
       id="g370"><g
         id="g372"><g
           clip-path="url(#clipPath378)"
           id="g374"><g
             id="g380"><g
               transform="matrix(1,0,0,-1,0,457)"
               id="g382"><path
                 inkscape:connector-curvature="0"
                 id="path384"
                 style="fill:none;stroke:#000000;stroke-width:1.41732299;stroke-linecap:butt;stroke-linejoin:miter;stroke-miterlimit:4;stroke-dasharray:none;stroke-opacity:1"
                 d="m 338.043,320.199 c -114.02,0 -114.02,0 -114.02,0" /></g></g></g></g></g><g
       transform="translate(0,-0.571442)"
       id="g386"><g
         id="g388"><g
           clip-path="url(#clipPath394)"
           id="g390"><g
             id="g396"><text
               id="text400"
               style="font-variant:normal;font-size:32.07074738px;font-family:'Nimbus Roman No9 L';-inkscape-font-specification:NimbusRomNo9L-ReguItal;writing-mode:lr-tb;fill:#000000;fill-opacity:1;fill-rule:nonzero;stroke:none"
               transform="matrix(1,0,0,-0.99559281,2.405306,302.83168)"><tspan
                 id="tspan398"
                 sodipodi:role="line"
                 y="0"
                 x="0 16.035374 30.274788 42.750309 50.767994 66.803368 82.838745 95.314262 111.34964 134.50471 148.74414 157.65981 171.89922 184.27852 192.2962 206.53563 222.571 238.60637 254.64175 270.67712"
                 style="font-style:italic">per parameter change</tspan></text>
</g></g></g></g><g
       transform="translate(0,-0.571442)"
       id="g402"><g
         id="g404"><g
           clip-path="url(#clipPath410)"
           id="g406"><g
             id="g412"><text
               id="text416"
               style="font-variant:normal;font-size:32.07074738px;font-family:'Nimbus Roman No9 L';-inkscape-font-specification:NimbusRomNo9L-ReguItal;writing-mode:lr-tb;fill:#000000;fill-opacity:1;fill-rule:nonzero;stroke:none"
               transform="matrix(1,0,0,-0.99559281,2.405306,217.92215)"><tspan
                 id="tspan414"
                 sodipodi:role="line"
                 y="0"
                 x="0 16.035374 30.274788 42.750309 50.767994 66.803368 79.278893 93.518303 105.99383 114.01151 122.83097 138.86635 147.78201 162.02142 174.49695 190.53232 204.77173 213.68739 222.50685 238.54224"
                 style="font-style:italic">per user interaction</tspan></text>
</g></g></g></g><g
       transform="translate(0,-0.571442)"
       id="g418"><g
         id="g420"><g
           clip-path="url(#clipPath426)"
           id="g422"><g
             id="g428"><text
               id="text432"
               style="font-variant:normal;font-size:32.07074738px;font-family:'Nimbus Roman No9 L';-inkscape-font-specification:NimbusRomNo9L-ReguItal;writing-mode:lr-tb;fill:#000000;fill-opacity:1;fill-rule:nonzero;stroke:none"
               transform="matrix(1,0,0,-0.99559281,2.405306,130.4336)"><tspan
                 id="tspan430"
                 sodipodi:role="line"
                 y="0"
                 x="0 16.035374 30.274788 42.750309 50.767994 66.803368 79.278893 93.518303 105.99383 114.01151 122.83097 138.86635 147.78201 162.02142 178.05679"
                 style="font-style:italic">per user intent</tspan></text>
</g></g></g></g><g
       transform="translate(0,-0.571442)"
       id="g434"><g
         id="g436"><g
           clip-path="url(#clipPath442)"
           id="g438"><g
             id="g444"><g
               transform="matrix(1,0,0,-1,0,457)"
               id="g446"><path
                 inkscape:connector-curvature="0"
                 id="path448"
                 style="fill:none;stroke:#000000;stroke-width:0.81311798;stroke-linecap:butt;stroke-linejoin:miter;stroke-miterlimit:4;stroke-dasharray:none;stroke-opacity:1"
                 d="m 620.66,104.352 c 22.5,1.949 -6.773,47.933 27.402,47.164 -31.515,-6.25 -4.152,34.211 -26.519,43.875" /></g></g></g></g></g><g
       transform="translate(0,-0.571442)"
       id="g450"><g
         id="g452"><g
           clip-path="url(#clipPath458)"
           id="g454"><g
             id="g460"><g
               transform="matrix(1,0,0,-1,0,457)"
               id="g462"><path
                 inkscape:connector-curvature="0"
                 id="path464"
                 style="fill:none;stroke:#000000;stroke-width:0.82722402;stroke-linecap:butt;stroke-linejoin:miter;stroke-miterlimit:4;stroke-dasharray:none;stroke-opacity:1"
                 d="m 742.27,99.238 c 45.285,28.184 -33.805,129.09 24.378,131.567 -57.234,-3.078 15.836,126.55 -31.8,131.566" /></g></g></g></g></g><g
       transform="translate(0,-0.571442)"
       id="g466"><g
         id="g468"><g
           clip-path="url(#clipPath474)"
           id="g470"><g
             id="g476"><text
               id="text480"
               style="font-variant:normal;font-size:34.07517242px;font-family:'Nimbus Roman No9 L';-inkscape-font-specification:NimbusRomNo9L-Medi;writing-mode:lr-tb;fill:#de2d26;fill-opacity:1;fill-rule:nonzero;stroke:none"
               transform="matrix(1,0,0,-0.9955928,791.44365,220.68945)"><tspan
                 id="tspan478"
                 sodipodi:role="line"
                 y="0"
                 x="0 22.72814 39.765724 58.711521 68.184418 85.222008 100.35138 117.38897 128.73599 138.20889 155.24649"
                 style="font-style:normal;font-weight:bold">Exploration</tspan></text>
</g></g></g></g><g
       transform="translate(0,-0.571442)"
       id="g482"><g
         id="g484"><g
           clip-path="url(#clipPath490)"
           id="g486"><g
             id="g492"><text
               id="text496"
               style="font-variant:normal;font-size:34.07517242px;font-family:'Nimbus Roman No9 L';-inkscape-font-specification:NimbusRomNo9L-Medi;writing-mode:lr-tb;fill:#2c7fb8;fill-opacity:1;fill-rule:nonzero;stroke:none"
               transform="matrix(1,0,0,-0.9955928,808.93562,27.87361)"><tspan
                 id="tspan494"
                 sodipodi:role="line"
                 y="0"
                 x="0 18.945795 34.075172 43.548069 58.677444 73.806824 85.153854 94.626755 111.66434"
                 style="font-style:normal;font-weight:bold">Selection</tspan></text>
</g></g></g></g><g
       transform="translate(0,-0.571442)"
       id="g498"><g
         id="g500"><g
           clip-path="url(#clipPath506)"
           id="g502"><g
             id="g508"><g
               transform="matrix(1,0,0,-1,0,457)"
               id="g510"><path
                 inkscape:connector-curvature="0"
                 id="path512"
                 style="fill:none;stroke:#000000;stroke-width:1.58456695;stroke-linecap:butt;stroke-linejoin:miter;stroke-miterlimit:4;stroke-dasharray:none;stroke-opacity:1"
                 d="m 786.664,423.398 c -96.488,0 -130.894,0 -155.711,0" /></g></g></g></g></g><g
       transform="translate(0,-0.571442)"
       id="g550"><g
         id="g552"><g
           clip-path="url(#clipPath558)"
           id="g554"><g
             id="g560"><g
               transform="matrix(1,0,0,-1,0,457)"
               id="g562"><path
                 inkscape:connector-curvature="0"
                 id="path564"
                 style="fill:none;stroke:#000000;stroke-width:1.58456695;stroke-linecap:butt;stroke-linejoin:miter;stroke-miterlimit:4;stroke-dasharray:none;stroke-opacity:1"
                 d="m 371.141,50.352 -0.137,46.941" /></g></g></g></g></g><g
       transform="translate(0,-0.571442)"
       id="g566"><g
         id="g568"><g
           clip-path="url(#clipPath574)"
           id="g570"><g
             id="g576"><g
               transform="matrix(1,0,0,-1,0,457)"
               id="g578"><path
                 inkscape:connector-curvature="0"
                 id="path580"
                 style="fill:none;stroke:#000000;stroke-width:1.58456695;stroke-linecap:butt;stroke-linejoin:miter;stroke-miterlimit:4;stroke-dasharray:none;stroke-opacity:1"
                 d="m 370.902,127.016 0.102,45.933" /></g></g></g></g></g><g
       transform="translate(0,-0.571442)"
       id="g582"><g
         id="g584"><g
           clip-path="url(#clipPath590)"
           id="g586"><g
             id="g592"><g
               transform="matrix(1,0,0,-1,0,457)"
               id="g594"><path
                 inkscape:connector-curvature="0"
                 id="path596"
                 style="fill:none;stroke:#000000;stroke-width:1.58456695;stroke-linecap:butt;stroke-linejoin:miter;stroke-miterlimit:4;stroke-dasharray:none;stroke-opacity:1"
                 d="m 370.852,201.965 v 50.488" /></g></g></g></g></g><g
       transform="translate(0,-0.571442)"
       id="g598"><g
         id="g600"><g
           clip-path="url(#clipPath606)"
           id="g602"><g
             id="g608"><g
               transform="matrix(1,0,0,-1,0,457)"
               id="g610"><path
                 inkscape:connector-curvature="0"
                 id="path612"
                 style="fill:none;stroke:#000000;stroke-width:1.58456695;stroke-linecap:butt;stroke-linejoin:miter;stroke-miterlimit:4;stroke-dasharray:none;stroke-opacity:1"
                 d="M 371.004,280.305 V 329.07" /></g></g></g></g></g><g
       transform="translate(0,-0.571442)"
       id="g614"><g
         id="g616"><g
           clip-path="url(#clipPath622)"
           id="g618"><g
             id="g624"><g
               transform="matrix(1,0,0,-1,0,457)"
               id="g626"><path
                 inkscape:connector-curvature="0"
                 id="path628"
                 style="fill:none;stroke:#000000;stroke-width:1.58007598;stroke-linecap:butt;stroke-linejoin:miter;stroke-miterlimit:4;stroke-dasharray:none;stroke-opacity:1"
                 d="m 371.219,358.051 -0.418,48.597" /></g></g></g></g></g><g
       transform="translate(0,-0.571442)"
       id="g630"><g
         id="g632"><g
           clip-path="url(#clipPath638)"
           id="g634"><g
             id="g640"><g
               transform="matrix(1,0,0,-1,0,457)"
               id="g642"><path
                 inkscape:connector-curvature="0"
                 id="path644"
                 style="fill:#fcc5c0;fill-opacity:1;fill-rule:nonzero;stroke:#000000;stroke-width:0.728697;stroke-linecap:butt;stroke-linejoin:miter;stroke-miterlimit:4;stroke-dasharray:none;stroke-opacity:1"
                 d="m 385.574,187.32 c 0,8.032 -6.539,14.539 -14.605,14.539 -8.067,0 -14.606,-6.507 -14.606,-14.539 0,-8.031 6.539,-14.543 14.606,-14.543 8.066,0 14.605,6.512 14.605,14.543 z" /></g></g></g></g></g><g
       transform="translate(0,-0.571442)"
       id="g646"><g
         id="g648"><g
           clip-path="url(#clipPath654)"
           id="g650"><g
             id="g656"><g
               transform="matrix(1,0,0,-1,0,457)"
               id="g658"><path
                 inkscape:connector-curvature="0"
                 id="path660"
                 style="fill:none;stroke:#000000;stroke-width:1.55866599;stroke-linecap:butt;stroke-linejoin:miter;stroke-miterlimit:4;stroke-dasharray:none;stroke-opacity:1"
                 d="m 328.75,38.91 c -137.91,0 -137.91,0 -137.91,0" /></g></g></g></g></g><g
       transform="translate(0,-0.571442)"
       id="g662"><g
         id="g664"><g
           clip-path="url(#clipPath670)"
           id="g666"><g
             id="g672"><text
               id="text676"
               style="font-variant:normal;font-size:32.07074738px;font-family:'Nimbus Roman No9 L';-inkscape-font-specification:NimbusRomNo9L-ReguItal;writing-mode:lr-tb;fill:#000000;fill-opacity:1;fill-rule:nonzero;stroke:none"
               transform="matrix(1,0,0,-0.99559281,-0.0921966,411.71893)"><tspan
                 id="tspan674"
                 sodipodi:role="line"
                 y="0"
                 x="0 16.035374 32.070747 40.088436 56.12381 68.599335 84.634705 100.67008 116.70545 125.62112 141.65649"
                 style="font-style:italic">no grouping</tspan></text>
</g></g></g></g></g></svg>